<svg xmlns="http://www.w3.org/2000/svg">
    <symbol id="small-right-arrow" viewBox="0 0 24 24" fill="none" stroke="currentColor"
        stroke-width="2" stroke-linecap="round" stroke-linejoin="round">
        <path d="m9 18 6-6-6-6" />
    </symbol>

    <symbol id="hamburger-menu" viewBox="0 0 24 24" fill="none"
        stroke="currentColor" stroke-width="2" stroke-linecap="round" stroke-linejoin="round">
        <line x1="4" x2="20" y1="12" y2="12" />
        <line x1="4" x2="20" y1="6" y2="6" />
        <line x1="4" x2="20" y1="18" y2="18" />
    </symbol>

    <symbol id="magnifying-glass" viewBox="0 0 24 24"
        fill="none" stroke="currentColor" stroke-width="2" stroke-linecap="round"
        stroke-linejoin="round">
        <circle cx="11" cy="11" r="8" />
        <path d="m21 21-4.3-4.3" />
    </symbol>

    <symbol id="user-avatar" fill="none" viewBox="0 0 24 24"
        stroke="currentColor" stroke-width="2.5">
        <circle cx="12" cy="8" r="4" />
        <path d="M4 20c0-4 4-6 8-6s8 2 8 6" />
    </symbol>

    <symbol id="left-arrow" viewBox="0 0 24 24" fill="none" stroke="currentColor"
        stroke-width="2" stroke-linecap="round" stroke-linejoin="round">
        <path d="M15 19l-7-7 7-7" />
    </symbol>

    <symbol id="right-arrow" viewBox="0 0 24 24" fill="none" stroke="currentColor"
        stroke-width="2" stroke-linecap="round" stroke-linejoin="round">
        <path d="M9 5l7 7-7 7" />
    </symbol>

    <symbol id="date-calendar" viewBox="0 0 24 24" fill="none" stroke="currentColor"
        stroke-width="2" stroke-linecap="round" stroke-linejoin="round">
        <path
            d="M8 7V3m8 4V3m-9 8h10M5 21h14a2 2 0 002-2V7a2 2 0 00-2-2H5a2 2 0 00-2 2v12a2 2 0 002 2z" />
    </symbol>
</svg>